
<svg xmlns="http://www.w3.org/2000/svg" viewBox="0 0 48 48"><defs><style>.cls-1{fill:#563f7a;}.cls-2{fill:#fff;}</style></defs><title>iconcircle_bootstrap</title><g id="Layer_1" data-name="Layer 1"><circle class="cls-1" cx="24" cy="24" r="24"/></g><g id="Layer_2" data-name="Layer 2"><path class="cls-2" d="M33,13H17a4,4,0,0,0-4,4V33a4,4,0,0,0,4,4H33a4,4,0,0,0,4-4V17A4,4,0,0,0,33,13ZM30.82,29.85a3.11,3.11,0,0,1-.92,1.24,4.7,4.7,0,0,1-1.61.82,7.88,7.88,0,0,1-2.33.31H19.52v-14h6.8a4.86,4.86,0,0,1,3,.86,3.07,3.07,0,0,1,1.14,2.61A3.12,3.12,0,0,1,30,23.5a3.33,3.33,0,0,1-1.48,1.17v0a3.07,3.07,0,0,1,2,1.22,4.06,4.06,0,0,1,.67,2.38A4,4,0,0,1,30.82,29.85Z" transform="translate(-1 -1)"/><path class="cls-2" d="M28,26.4a2.48,2.48,0,0,0-1.73-.56H22v4.38h4.33A2.42,2.42,0,0,0,28,29.64,2.14,2.14,0,0,0,28.66,28,2,2,0,0,0,28,26.4Z" transform="translate(-1 -1)"/><path class="cls-2" d="M27.44,23.58A1.8,1.8,0,0,0,28,22.13a1.82,1.82,0,0,0-.53-1.49A2.38,2.38,0,0,0,26,20.21H22v3.87h4A2.17,2.17,0,0,0,27.44,23.58Z" transform="translate(-1 -1)"/></g></svg>